<svg xmlns="http://www.w3.org/2000/svg" viewBox="0 0 1359 1812">
	<path class="icon-background" d="M792.75 481.312V0H84.937C37.868 0 0 37.868 0 84.938V1727.06c0 47.07 37.868 84.94 84.938 84.94H1274.06c47.07 0 84.94-37.87 84.94-84.94V566.25H877.688c-46.716 0-84.938-38.222-84.938-84.938zm566.25-49.9V453H906V0h21.588c22.65 0 44.239 8.848 60.164 24.773l346.478 346.829a84.686 84.686 0 0124.77 59.81z" />
	<path class="icon-foreground" d="M1214.95 986.249L964.943 1238.57c-26.353 26.59-70.276 6.87-70.276-32.38v-133.52c-250.999 1.8-356.886 65.15-286.068 317.94 7.783 27.78-22.302 49.29-43.413 32.15-67.651-54.92-128.853-159.97-128.853-266.01 0-267.07 204.165-320.068 458.334-321.575V701.554c0-39.288 43.953-58.945 70.276-32.374l250.007 252.321c17.39 17.558 17.41 47.175 0 64.748zM894.667 1360.46v127.79H339.111V894.5h88.396a19.682 19.682 0 008.162-1.787c2.58-1.178 4.91-2.9 6.852-5.065 25.96-28.886 55.967-51.749 88.566-69.907 19.323-10.763 12.163-41.991-9.627-41.991H311.333c-46.024 0-83.333 39.874-83.333 89.063v653.127c0 49.19 37.309 89.06 83.333 89.06h611.111c46.025 0 83.336-39.87 83.336-89.06v-164.78c0-15.38-14.233-26.1-27.799-20.97-19.02 7.19-39.388 9.34-59.356 6.27-12.622-1.94-23.958 8.37-23.958 22z" />
</svg>
