<?xml version="1.0" standalone="no"?>
<!DOCTYPE svg PUBLIC "-//W3C//DTD SVG 20010904//EN" "http://www.w3.org/TR/2001/REC-SVG-20010904/DTD/svg10.dtd">
<svg version="1.0" xmlns="http://www.w3.org/2000/svg" width="1812.000000pt" height="1812.000000pt"
	viewBox="0 0 1812.000000 1812.000000" preserveAspectRatio="xMidYMid meet">
	<g transform="translate(0.000000,1812.000000) scale(0.100000,-0.100000)" fill="#000000" stroke="none">
		<path d="M2917 18099 c-149 -36 -272 -105 -391 -218 -117 -113 -198 -253 -236
-413 -20 -83 -20 -126 -20 -8401 0 -7551 1 -8325 16 -8395 34 -168 121 -321
253 -444 118 -110 241 -176 398 -212 66 -15 568 -16 6123 -16 5407 0 6059 2
6125 15 156 33 286 100 406 213 132 123 219 276 253 444 15 70 16 629 16 5933
l0 5855 -2434 0 c-2673 0 -2520 -3 -2685 60 -209 81 -400 272 -481 481 -63
165 -60 11 -60 2685 l0 2434 -3602 -1 c-3514 0 -3605 -1 -3681 -20z m8855
-6579 c73 -28 130 -75 297 -247 146 -149 340 -345 1797 -1813 559 -564 593
-599 627 -670 63 -128 67 -277 12 -398 -40 -86 136 95 -1594 -1649 -1196
-1207 -1095 -1118 -1276 -1118 -92 0 -106 3 -167 32 -80 38 -156 109 -192 182
-56 110 -56 106 -56 863 0 552 -3 698 -12 698 -141 -1 -649 -24 -788 -35 -644
-53 -1138 -172 -1478 -355 -477 -258 -734 -653 -793 -1219 -17 -162 -6 -525
20 -721 29 -205 80 -461 141 -698 58 -225 63 -289 26 -368 -49 -106 -136 -164
-246 -164 -85 0 -127 20 -231 111 -477 414 -888 1059 -1079 1691 -94 311 -130
535 -137 859 -8 322 16 602 73 887 148 732 514 1286 1101 1669 680 444 1685
672 3081 700 l322 6 0 693 c0 471 4 710 11 746 36 170 175 309 337 338 61 11
145 3 204 -20z m-4230 -1170 c135 -38 191 -229 102 -347 -13 -17 -84 -68 -161
-114 -277 -166 -473 -320 -698 -548 -83 -83 -144 -136 -168 -146 -31 -13 -110
-15 -497 -15 l-460 0 0 -2975 0 -2975 2780 0 2780 0 0 658 c0 432 4 670 11
695 13 47 73 115 117 134 26 11 70 12 205 7 195 -7 281 3 452 56 132 41 192
32 257 -37 61 -63 58 -17 58 -1008 0 -788 -2 -916 -16 -983 -34 -164 -108
-310 -220 -430 -116 -126 -240 -201 -404 -244 l-85 -23 -3160 0 c-3054 0
-3162 1 -3230 19 -159 42 -289 120 -405 243 -115 121 -192 268 -227 433 -17
81 -18 240 -18 3470 l0 3385 27 98 c94 341 345 584 663 642 90 17 2238 21
2297 5z" />
		<path d="M11330 15855 l0 -2265 2265 0 2265 0 0 164 c0 139 -4 177 -24 258
-30 119 -88 234 -164 329 -33 41 -856 869 -1828 1840 -1316 1314 -1786 1777
-1834 1808 -76 48 -197 97 -290 117 -40 8 -128 14 -227 14 l-163 0 0 -2265z" />
	</g>
</svg>
